# xmcd
#
# Track frame offsets:
# 150
# 16587
# 34514
# 56314
# 72431
# 88072
# 104280
# 119853
# 137218
# 152895
# 167612
# 182631
# 196594
# 209362
# 225237
# 246010
# 260433
# 273285
# 286991
#
# Disc length: 4022 seconds
#
#
# Revision: 4
# Processed by: cddbd v1.5.1PL2 Copyright (c) Steve Scherf et al.
# Submitted via: FreeRIP 2.944 
#
DISCID=010fb413
DTITLE=Promo Only Country Radio November 2005 - Promo Only Country Radio November 2005
DYEAR=2005
DGENRE=Country
TTITLE0=Trace Adkins - Honky Tonk Badonkadonk
TTITLE1=Kenny Chesney - Who You'd Be Today
TTITLE2=Brooks N Dunn - Believe
TTITLE3=Tim McGraw - My Old Friend
TTITLE4=Big N Rich - Comin' To Your City
TTITLE5=Brad Paisley Ft Dolly Parton - When I Get Where I'm Going
TTITLE6=DaniellePeck - I Don't
TTITLE7=Doug Stone - Everything
TTITLE8=Hometown News - That's Country To Me
TTITLE9=Shannon Brown - Corn Fed
TTITLE10=Lila McCann Ft Jim Brickman - I'm Amazed
TTITLE11=Joey Martin - That's Important To Me
TTITLE12=Hot Apple Pie - We're Makin' Up
TTITLE13=Wynonna Judd - Attitude
TTITLE14=John Keaton - Heart Of The Town
TTITLE15=Erika Jo - I'm Not Lisa
TTITLE16=Shawn King - In My Backyard
TTITLE17=Carolina Rain - Let's Get It On
TTITLE18=Doug Adkins - Whiskey Salesman
EXTD=
EXTT0=
EXTT1=
EXTT2=
EXTT3=
EXTT4=
EXTT5=
EXTT6=
EXTT7=
EXTT8=
EXTT9=
EXTT10=
EXTT11=
EXTT12=
EXTT13=
EXTT14=
EXTT15=
EXTT16=
EXTT17=
EXTT18=
PLAYORDER=
